<svg xmlns="http://www.w3.org/2000/svg" viewBox="0 0 132 132" width="44" height="44" role="img" aria-label="memory">
  <rect x="0.5" y="0.5" width="131" height="131" rx="30" fill="#0F1117" stroke="#1E2230"/>
    <path d="M98 63 L98 71.77 C98 75.29 98 77.05 97.40 78.95 C96.65 81.02 95.02 82.65 92.95 83.40 C91.05 84 89.29 84 85.77 84 L46.23 84 C42.71 84 40.95 84 39.05 83.40 C36.98 82.65 35.35 81.02 34.60 78.95 C34 77.05 34 75.29 34 71.77 L34 54.23 C34 50.71 34 48.95 34.60 47.05 C35.35 44.98 36.98 43.35 39.05 42.60 C40.95 42 42.71 42 46.23 42 L85.77 42 C89.29 42 91.05 42 92.95 42.60 C95.02 43.35 96.65 44.98 97.40 47.05 C98 48.95 98 50.71 98 54.23 Z" fill="none" stroke="#8FBAFF" stroke-width="9" stroke-linecap="round" stroke-linejoin="round"/>
    <path d="M55 54 L55 72 M77 54 L77 72" fill="none" stroke="#8FBAFF" stroke-width="9" stroke-linecap="round" stroke-linejoin="round"/>
    <path d="M51 84 L51 102 M81 84 L81 102" fill="none" stroke="#8FBAFF" stroke-width="9" stroke-linecap="round" stroke-linejoin="round"/>
</svg>
